<svg width="2000" height="3274" viewBox="0 0 2000 3274" fill="none" xmlns="http://www.w3.org/2000/svg">
<g clip-path="url(#clip0_730_39)">
<rect width="2000" height="3274" fill="#0D0D0D"/>
<path d="M-337.191 -259.776C-268.257 -530.131 8.60498 -691.764 277.922 -618.88L2060.14 -136.564C2380.17 -49.9569 2491.89 346.878 2264.06 587.727V587.727C2232.55 621.036 2196.01 649.195 2155.77 671.175L1712.22 913.47C1602.12 973.615 1473.43 990.17 1351.68 959.851L-40.864 613.037C-309.877 546.039 -473.025 272.959 -404.529 4.32254L-337.191 -259.776Z" fill="#0D0D0D"/>
<path d="M-445.6 404.588C-511.303 338.885 -514.203 233.29 -452.207 164.08L-57.7214 -276.305C7.43374 -349.041 119.512 -354.381 191.287 -288.169L660.705 144.865C733.624 212.133 736.101 326.502 666.163 396.864L231.849 833.804C163.569 902.498 52.477 902.665 -16.0105 834.177L-445.6 404.588Z" fill="white" fill-opacity="0.2"/>
<path d="M1366.02 223.988C1349.11 202.393 1352.76 171.215 1374.19 154.102L1478.61 70.6983C1494.94 57.6546 1517.66 56.1453 1535.58 66.9142L1676.05 151.362C1704.26 168.321 1708.67 207.439 1684.94 230.254L1545.68 364.176C1524.33 384.709 1489.91 382.281 1471.65 358.954L1366.02 223.988Z" fill="white" fill-opacity="0.2"/>
<path d="M96.1364 1741.76C115.176 1722.03 146.559 1721.31 166.48 1740.15L263.567 1831.99C278.75 1846.36 283.398 1868.65 275.219 1887.88L211.08 2038.71C198.2 2069 160.072 2078.8 134.186 2058.47L-17.7644 1939.14C-41.0621 1920.85 -43.4341 1886.42 -22.866 1865.1L96.1364 1741.76Z" fill="white" fill-opacity="0.2"/>
<path d="M1736.03 334.058C1706.74 304.769 1706.74 257.281 1736.03 227.992L1904.62 59.4013C1935.93 28.0976 1987.39 30.5768 2015.54 64.7446L2273.55 377.917C2304.48 415.453 2292.05 472.041 2248.24 493.164L2057.97 584.91C2029.25 598.759 1994.91 592.933 1972.36 570.386L1736.03 334.058Z" fill="white" fill-opacity="0.35"/>
<path d="M1506.43 533.036C1476.87 516.246 1472.32 475.485 1497.45 452.593L1612.14 348.133C1631.89 330.149 1662.28 330.858 1681.16 349.743L1762.76 431.342C1778.27 446.847 1781.86 470.646 1771.63 490.038L1717.07 593.396C1703.9 618.351 1672.7 627.469 1648.16 613.533L1506.43 533.036Z" fill="white" fill-opacity="0.2"/>
<path d="M257.722 1375.78C309.802 1343.82 378.111 1365.64 402.035 1421.86L465.203 1570.31C489.174 1626.64 457.353 1691.1 398.053 1706.32L377.899 1711.5L290.504 1737.74C252.722 1749.09 211.801 1737.16 186.031 1707.29L100.656 1608.34C60.3831 1561.67 71.5255 1490.02 124.071 1457.78L257.722 1375.78Z" fill="white" fill-opacity="0.35"/>
<path d="M325.617 2881.59C98.7634 2569.53 295.818 2129.01 679.652 2090.13L2177.08 1938.44C2383.24 1917.56 2580.92 2026 2674.08 2211.08L2828.39 2517.64C2972.81 2804.54 2813.12 3151.24 2501.23 3227.97L1195.59 3549.18C998.267 3597.73 791.195 3522.03 671.71 3357.67L325.617 2881.59Z" fill="#EEEEEE"/>
<path d="M1617.46 1444.14C1551.71 1378.38 1548.86 1272.68 1610.98 1203.49L1859.52 926.641C1924.67 854.074 2036.56 848.759 2108.3 914.823L2394.72 1178.61C2467.74 1245.86 2470.26 1360.31 2400.27 1430.71L2127.07 1705.53C2058.79 1774.22 1947.7 1774.38 1879.22 1705.9L1617.46 1444.14Z" fill="white" fill-opacity="0.2"/>
</g>
<defs>
<clipPath id="clip0_730_39">
<rect width="2000" height="3274" fill="white"/>
</clipPath>
</defs>
</svg>
