<svg width="2000" height="3274" viewBox="0 0 2000 3274" fill="none" xmlns="http://www.w3.org/2000/svg">
<g clip-path="url(#clip0_730_39)">
<rect width="2000" height="3274" fill="#0D0D0D"/>
<path d="M-337.191 -259.776C-268.257 -530.131 8.60499 -691.764 277.922 -618.88L2060.14 -136.564C2380.17 -49.9569 2491.89 346.878 2264.06 587.727C2232.55 621.036 2196.01 649.195 2155.77 671.175L1712.22 913.47C1602.11 973.615 1473.43 990.17 1351.68 959.851L-40.864 613.037C-309.877 546.039 -473.025 272.959 -404.529 4.32252L-337.191 -259.776Z" fill="#0D0D0D"/>
<rect x="-320" y="456.553" width="500" height="500" rx="150" transform="rotate(-45 -320 456.553)" fill="white" fill-opacity="0.2"/>
<rect x="1329" y="225.777" width="250" height="250" rx="50" transform="rotate(-45 1329 225.777)" fill="white" fill-opacity="0.2"/>
<rect x="158" y="49.0991" width="225" height="225" rx="50" transform="rotate(-45 158 49.0991)" fill="white" fill-opacity="0.35"/>
<rect x="1506" y="457.421" width="200" height="200" rx="50" transform="rotate(-45 1506 457.421)" fill="white" fill-opacity="0.2"/>
<rect y="1264.42" width="200" height="200" rx="50" transform="rotate(-45 0 1264.42)" fill="white" fill-opacity="0.35"/>
<rect x="1435" y="1652.78" width="250" height="250" rx="50" transform="rotate(-45 1435 1652.78)" fill="white" fill-opacity="0.2"/>
<rect x="1789" y="1299.78" width="500" height="500" rx="50" transform="rotate(-45 1789 1299.78)" fill="white" fill-opacity="0.35"/>
<path d="M325.617 2881.59C98.7634 2569.53 295.818 2129.01 679.652 2090.13L2177.08 1938.44C2383.24 1917.56 2580.92 2026 2674.08 2211.08L2828.39 2517.64C2972.81 2804.54 2813.12 3151.24 2501.23 3227.97L1195.59 3549.18C998.267 3597.73 791.195 3522.03 671.71 3357.66L325.617 2881.59Z" fill="#EEEEEE"/>
</g>
<defs>
<clipPath id="clip0_730_39">
<rect width="2000" height="3274" fill="white"/>
</clipPath>
</defs>
</svg>
