<svg width="2000" height="3274" viewBox="0 0 2000 3274" fill="none" xmlns="http://www.w3.org/2000/svg">
<g clip-path="url(#clip0_1507_25)">
<rect width="2000" height="3274" fill="#1C1C1C"/>
<path d="M-344.085 2896.46C-455.559 2595.24 -258.169 2268.54 60.3387 2227.11L1578.88 2029.58C1841.84 1995.37 2085.76 2172.39 2134.77 2432.99L2226.63 2921.48C2280.39 3207.31 2079.78 3478.52 1790.73 3510.8L347.624 3671.93C119.285 3697.43 -97.0405 3564.03 -176.781 3348.55L-344.085 2896.46Z" fill="#F9F9F9"/>
<path d="M-6.56618 173.363C21.1411 156.391 56.6255 159.191 81.3285 180.297L199.569 281.324C224.272 302.431 232.574 337.043 220.134 367.06L160.59 510.731C148.15 540.748 117.797 559.34 85.4059 556.784L-69.6342 544.552C-102.026 541.996 -129.087 518.874 -136.666 487.278L-172.943 336.046C-180.522 304.451 -166.894 271.568 -139.186 254.597L-6.56618 173.363Z" fill="#AEAEAE" fill-opacity="0.5"/>
<path d="M1802.92 162.52C1812.58 147.49 1829.52 138.752 1847.36 139.597L1964.49 145.145C1982.34 145.991 1998.37 156.291 2006.56 172.166L2060.33 276.381C2068.51 292.257 2067.61 311.295 2057.96 326.325L1994.59 424.992C1984.93 440.022 1967.99 448.76 1950.15 447.915L1833.02 442.366C1815.17 441.521 1799.14 431.221 1790.95 415.345L1737.19 311.13C1729 295.255 1729.9 276.217 1739.55 261.186L1802.92 162.52Z" fill="#AEAEAE" fill-opacity="0.5"/>
<path d="M1582.45 315.857C1589.36 293.819 1617.53 287.521 1633.16 304.52L1709.37 387.389C1725 404.388 1716.37 431.935 1693.83 436.974L1583.96 461.537C1561.42 466.576 1541.88 445.327 1548.79 423.29L1582.45 315.857Z" fill="#AEAEAE" fill-opacity="0.8"/>
<path d="M1879.39 619.814C1888.7 640.947 1871.64 664.236 1848.69 661.733L1736.77 649.532C1713.81 647.029 1702.17 620.612 1715.82 601.981L1782.34 511.156C1795.99 492.525 1824.69 495.654 1834 516.787L1879.39 619.814Z" fill="#AEAEAE" fill-opacity="0.5"/>
<path d="M38.1087 1432.48C-5.65971 1470.13 -73.7742 1446.29 -84.4975 1389.55L-116.667 1219.36C-127.39 1162.63 -72.6797 1115.57 -18.1881 1134.65L145.287 1191.88C199.778 1210.96 213.182 1281.87 169.414 1319.53L38.1087 1432.48Z" fill="#AEAEAE" fill-opacity="0.5"/>
<path d="M124.719 1645.57C107.53 1650.43 89.0531 1645.75 76.2486 1633.3L45.9529 1603.83C33.1484 1591.37 27.9615 1573.03 32.3461 1555.72L42.7202 1514.74C47.1048 1497.43 60.3948 1483.76 77.5839 1478.9L118.254 1467.4C135.443 1462.54 153.92 1467.22 166.724 1479.67L197.02 1509.14C209.824 1521.6 215.011 1539.94 210.627 1557.26L200.253 1598.23C195.868 1615.55 182.578 1629.21 165.389 1634.07L124.719 1645.57Z" fill="#AEAEAE" fill-opacity="0.5"/>
<path d="M1944.63 1184.24C1975.44 1207.31 1969.71 1255.08 1934.33 1270.22L1775.09 1338.37C1739.71 1353.52 1701.2 1324.68 1705.78 1286.46L1726.37 1114.48C1730.95 1076.27 1775.18 1057.34 1805.99 1080.41L1944.63 1184.24Z" fill="#AEAEAE" fill-opacity="0.5"/>
<path d="M2224.58 1393.54C2239.77 1415.62 2242.02 1444.13 2230.49 1468.31L2160.17 1615.81C2148.64 1639.99 2125.08 1656.19 2098.37 1658.3L1935.48 1671.16C1908.77 1673.26 1882.96 1660.96 1867.78 1638.88L1775.2 1504.24C1760.02 1482.16 1757.77 1453.66 1769.3 1429.48L1839.61 1281.98C1851.14 1257.79 1874.7 1241.59 1901.41 1239.49L2064.31 1226.63C2091.02 1224.52 2116.82 1236.83 2132.01 1258.9L2224.58 1393.54Z" fill="#AEAEAE" fill-opacity="0.8"/>
<path d="M71.4518 633.857C78.357 611.819 106.529 605.521 122.162 622.52L198.369 705.389C214.002 722.388 205.37 749.935 182.833 754.974L72.9616 779.537C50.424 784.576 30.8835 763.327 37.7887 741.29L71.4518 633.857Z" fill="#AEAEAE"/>
<path d="M193.937 1249.45C212.445 1235.64 238.965 1247.04 241.674 1269.97L254.879 1381.78C257.588 1404.71 234.454 1421.98 213.237 1412.86L109.808 1368.39C88.5914 1359.27 85.2053 1330.6 103.713 1316.79L193.937 1249.45Z" fill="#AEAEAE" fill-opacity="0.8"/>
</g>
<defs>
<clipPath id="clip0_1507_25">
<rect width="2000" height="3274" fill="white"/>
</clipPath>
</defs>
</svg>
